<svg id="Layer_1" data-name="Layer 1" xmlns="http://www.w3.org/2000/svg" viewBox="0 0 511.8 413.4"><defs><style>.cls-1{fill:#fff;}.cls-2{fill:#9ec43b;}</style></defs><title>logo</title><path d="M499.84,170.14s0-15.2-3.65-40.13-16.42-29.18-16.42-29.18L487.07,71l-4.86-35.87s-71.74-15.2-84.51-17a31.25,31.25,0,0,0-21.28,4.26s-59-8.64-117.47-8.64A679.38,679.38,0,0,0,152.07,22.4s-9.73-9.12-25.54-5.47S38.38,35.16,38.38,35.16L13.45,207.22,122.08,265c27.4,63.46,127.62,131.33,137.42,136.32,9.86-5,111.29-73.71,137.93-137.52,32.08-18.78,92.54-53.37,96.15-59.15C499.66,182.28,499.84,170.14,499.84,170.14Z" transform="translate(-0.2 -1.6)"/><path class="cls-1" d="M259.49,415,254,412.19c-6.17-3.14-34.42-22-64.51-47.84-38-32.64-63.78-63.07-76.76-90.52L.2,213.94l27.38-189L36,23.24c.72-.15,72.36-14.6,87.83-18.17A45.09,45.09,0,0,1,133.92,3.9a41.36,41.36,0,0,1,21,5.69,701.32,701.32,0,0,1,104-8c50.6,0,100.73,6.24,115.18,8.2a44.44,44.44,0,0,1,18.8-4.16,46,46,0,0,1,6.49.46c13,1.86,82.37,16.54,85.31,17.16L493.11,25l6.32,46.64-5.9,24.09c5.71,5.51,12.19,15.34,14.69,32.47C512,153.76,512,169.48,512,170.14v.19c0,1.4-.39,14.34-6.69,37.55l-.47,1.73-1,1.52c-3.63,5.81-15.24,13.65-85.12,54.34L407,272.34c-12.66,27.69-38.5,58.46-76.88,91.52C299.8,389.95,271.26,409,265,412.19ZM26.71,200.51l104.84,55.8,1.69,3.91C156.5,314.1,236.8,372.3,259.49,387.12c22.87-14.93,104.11-73.84,126.71-128l1.57-3.75,3.51-2.06c4.59-2.68,9.75-5.69,15.25-8.89,23.53-13.7,66.05-38.46,76.18-46.22,4.43-17.25,4.93-27.14,5-28.23,0-1.56-.25-15.88-3.52-38.22-2.05-14-7.27-18.53-8.64-19.49L463.27,110,468,97.93l6.75-27.55-3.4-25.09C445.24,39.8,404.75,31.43,396,30.18a21.71,21.71,0,0,0-3-.22,19.1,19.1,0,0,0-9.53,2.4l-4,3.12-4.73-1.06c-.58-.09-58.83-8.51-115.71-8.51a673.82,673.82,0,0,0-104.74,8.45l-6.36,1.13-4-4.14a16.52,16.52,0,0,0-9.93-3.14,20.68,20.68,0,0,0-4.65.55c-12.72,2.94-60.47,12.64-80.09,16.61Z" transform="translate(-0.2 -1.6)"/><path d="M499.84,170.14s0-15.2-3.65-40.13-16.42-29.18-16.42-29.18L487.07,71l-4.86-35.87s-71.74-15.2-84.51-17a31.25,31.25,0,0,0-21.28,4.26s-59-8.64-117.47-8.64A679.38,679.38,0,0,0,152.07,22.4s-9.73-9.12-25.54-5.47S38.38,35.16,38.38,35.16L13.45,207.22,122.08,265c27.4,63.46,127.62,131.33,137.42,136.32,9.86-5,111.29-73.71,137.93-137.52,32.08-18.78,92.54-53.37,96.15-59.15C499.66,182.28,499.84,170.14,499.84,170.14Z" transform="translate(-0.2 -1.6)"/><path class="cls-2" d="M265.37,94.14l5.5,0q4.18,18.4,8.53,36.76,15.35.29,30.68,1.09l-.37-11.77q-7.37-19.41-14.55-38.89,5.09-16.18,10-32.39l-.35-11.77q-13.73-.68-27.47-.93-3.25,17.14-6.66,34.24l-5.41,0q0-17.17-.08-34.34-14.4-.06-28.8.36l-1.67,94.65q15.34-.45,30.7-.39Q265.42,112.46,265.37,94.14Z" transform="translate(-0.2 -1.6)"/><path class="cls-2" d="M384.19,138.91l-1.89-23.78q-17.21-2.3-34.49-3.94l-.74-13q14.73,1.4,29.41,3.28l-1.81-23.77q-14.45-1.85-28.95-3.23l-.6-10.57q14.4,1.37,28.74,3.21c1.5-4.6,2.24-6.89,3.71-11.48l-.94-11.82c-20.5-2.6-41-4.6-61.61-6l3.5,94.74C340.5,134,362.34,136.14,384.19,138.91Z" transform="translate(-0.2 -1.6)"/><path class="cls-2" d="M133.23,38.71c-24.46,3.86-48.67,8.58-72.79,14.2L43.33,176.54c26.16-6.11,52.43-11.24,79-15.4,9.27-1.4,16.33-8.53,17-17.44l7.28-91.86C147.32,42.93,141.77,37.42,133.23,38.71Zm-31.51,95.64c-6.25,1.11-9.38,1.69-15.61,2.91l7-61.31c6-1.17,9-1.73,15-2.79Z" transform="translate(-0.2 -1.6)"/><path class="cls-2" d="M162.1,136.16c20.44-2.09,40.87-3.62,61.4-4.6l2.37-94.68q-14.46.6-28.9,1.68l-3.2,71.09c-4.81.36-7.22.56-12,1L185.5,39.5q-14.43,1.28-28.82,3l-6.06,83.24C150.13,132.7,154.81,137,162.1,136.16Z" transform="translate(-0.2 -1.6)"/><path class="cls-2" d="M478.15,161.17l-3.89-28.08a33.46,33.46,0,0,0-13.08-23.4Q443.61,95,425.84,80.56l-.62-5.62q18.33,3.46,36.5,7.69c1.45-5.82,2.15-8.72,3.55-14.54l-2.1-15.19c-21-4.88-42-9.11-63.24-12.7-8.7-1.41-14.2,4-13.44,12.95l2.2,25.7c.84,9.79,3.18,15.27,12.09,22.35q17.88,13.88,35.62,27.94l.92,8.08q-22.09-4.15-44.27-7.51l2.62,30.59q34.72,5.23,69,12.62C473.82,175,479.4,170.18,478.15,161.17Z" transform="translate(-0.2 -1.6)"/><path class="cls-1" d="M169.66,147.11c-5.93.59-8.89.91-14.81,1.6l-2.56,37c6.13-.71,9.19-1,15.32-1.65a3.28,3.28,0,0,0,3.19-3.46l1.77-30.68C172.67,148.18,172.18,146.86,169.66,147.11Zm-4.08,30.18a2,2,0,0,1-2,2.1L158,180l1.78-27.06,5.41-.58c1.26-.13,1.86.39,1.77,1.76Z" transform="translate(-0.2 -1.6)"/><path class="cls-1" d="M186.23,148.71l-1.5,30.76c-.11,2.16.55,3,3,2.81,5.61-.44,8.41-.64,14-1l.21-5.43c-4,.25-5.94.39-9.9.68-1.18.09-1.7-.08-1.64-1.4l.41-9c3.53-.27,5.3-.39,8.83-.63l.22-5.43c-3.52.23-5.28.36-8.8.62l.4-8.7c0-1,.48-1.4,1.59-1.49,4-.29,5.94-.43,9.9-.68l.21-5.43c-5.48.35-8.22.54-13.69,1C187.43,145.51,186.34,146.44,186.23,148.71Z" transform="translate(-0.2 -1.6)"/><path class="cls-1" d="M230.06,145.28l-.44,21.28c-3-8.44-4.51-12.66-7.45-21.08a2.41,2.41,0,0,0-2.36-2l-3.31.16-1.09,36.89,5.48-.25.51-19.76c2.77,7.77,4.17,11.67,7,19.46l6.46-.21.63-36.87-3.31.1C230.84,143,230.09,143.7,230.06,145.28Z" transform="translate(-0.2 -1.6)"/><path class="cls-1" d="M352.82,146.86l-4.14-.4,2.08,37.06,5.58.54-2.05-34.49C354.2,148,354.34,147,352.82,146.86Z" transform="translate(-0.2 -1.6)"/><path class="cls-1" d="M267.47,142.54a2.56,2.56,0,0,0-2.73,1.88c-1.95,5.2-2.93,7.8-4.91,13-1.88-5.2-2.82-7.79-4.67-13-.73-1.63-1.52-1.88-2.51-1.87l-4,0-.32,36.86,5.6-.06c0-9.75.07-14.63.12-24.38,2.3,6.66,3.46,10,5.81,16.66,2.37-6.68,3.54-10,5.85-16.69l.06,24.38,5.6,0-.22-36.86Z" transform="translate(-0.2 -1.6)"/><path class="cls-1" d="M367.43,148.51l-6-.67c-2.4,7-3.62,10.51-6.08,17.53,3.45,7.78,5.2,11.67,8.72,19.48l6.27.7c-3.75-7.86-5.6-11.77-9.27-19.59C363.64,159,364.92,155.48,367.43,148.51Z" transform="translate(-0.2 -1.6)"/><path class="cls-1" d="M333.36,164.18s2.88-1.83,2.8-3.46l-.58-12.24c-.1-2.06-1-3.13-3.19-3.3-5.75-.44-8.62-.63-14.38-1l1.34,36.9,5.75.36-.61-15.29a24.31,24.31,0,0,1,4.21.45c1.56.4,2.17,1.16,2.23,2.42l.67,12.88,5.75.44-.67-14C336.53,165.27,333.36,164.18,333.36,164.18Zm-4.3-2.84-1.91-.13c-1.7-.12-2.86,0-2.93-1.88l-.38-9.65,4.74.33c1.26.09,1.49.42,1.54,1.58l.36,8.18C330.52,160.92,330.12,161.42,329.06,161.34Z" transform="translate(-0.2 -1.6)"/><path class="cls-1" d="M296.17,143.15,291,143q-3.36,18.35-6.89,36.66l5.81.15a59.73,59.73,0,0,1,6.58-15.94,14.17,14.17,0,0,0-3.59-1.18c.76-4.57,1.14-6.85,1.89-11.41,1.75,8.86,3.47,17.47,5.82,28.91l6.08.27Q303,163.71,299.41,147C298.7,143.66,297.8,143.21,296.17,143.15Z" transform="translate(-0.2 -1.6)"/><path class="cls-2" d="M209,242.68a1,1,0,0,1-.36-2,43.87,43.87,0,0,0,16.13-12c7.67-9,12.26-11.11,12.46-11.19a1,1,0,0,1,1.33,1.42,71,71,0,0,1-11.67,15.44A26.89,26.89,0,0,1,209,242.68Z" transform="translate(-0.2 -1.6)"/><path class="cls-2" d="M209,241.64a44.47,44.47,0,0,0,16.56-12.27c7.6-9,12.08-10.91,12.08-10.91a70.58,70.58,0,0,1-11.49,15.2A26.06,26.06,0,0,1,209,241.64Z" transform="translate(-0.2 -1.6)"/><path class="cls-2" d="M259,245.2a1,1,0,0,1-.89-1c0-.12-.05-11.77-4.25-16.88a1,1,0,0,1,1.4-1.5l1,.71c-.25-2.32-1.06-6.12-3.66-8.82a11.49,11.49,0,0,0-8.64-3.26c-12.34,0-13.61,2.72-13.62,2.75a1,1,0,0,1-1,.81h-.16a1.08,1.08,0,0,1-.87-1.2,10.84,10.84,0,0,1,2-4.68c-3.49,2.15-8,5.76-13.51,11.73-8.3,8.94-17.19,13.47-26.43,13.47h0A29.25,29.25,0,0,1,173,231.37a1,1,0,0,1,.62-1.86,1,1,0,0,1,.26,0,40.75,40.75,0,0,0,9,1c4.6,0,10.7-.82,15.59-4.36a58.85,58.85,0,0,1-11.52,1.26c-11.47,0-19.59-4.29-24.14-12.76a1,1,0,0,1,1.81-1c0,.05,4,6.3,21.9,6.3,8.76,0,15.39-6.29,22.42-12.94,7.64-7.24,15.53-14.72,26.87-14.72,13.57,0,18.13,5.21,18.32,5.43a1,1,0,0,1-.79,1.7,1,1,0,0,1-.25,0,41.47,41.47,0,0,0-8.85-.9c-6,0-13.92,1.2-20.58,6.26,5.35-2.34,13.48-5.26,20.72-5.26,4.54,0,10.84,1.17,15.06,6.76,5.59,7.4,5.84,20.25.74,38.19a1,1,0,0,1-1,.75Z" transform="translate(-0.2 -1.6)"/><path class="cls-2" d="M259.17,244.18s0-12.08-4.48-17.53l2.73,1.95S258,213.4,244,213.4s-14.61,3.51-14.61,3.51,1-8.38,11.69-8.38c0,0-7.21-4.48-24.94,14.61s-34.48,13.44-42.47,7.4c0,0,18.31,4.68,28.25-6-.15-.73-27.69,9.2-38.18-10.33,0,0,3.9,6.82,22.79,6.82s28.05-27.66,49.29-27.66c13.25,0,17.53,5.07,17.53,5.07s-22.21-5.45-35.07,10.13c0,0,14.42-8,26.11-8S269.3,208.53,259.17,244.18Z" transform="translate(-0.2 -1.6)"/><path class="cls-2" d="M267.54,230a1,1,0,0,1-1-1.4c.06-.17,6.24-17-6.05-31.3a1,1,0,0,1,1.11-1.66c.32.11,8,2.69,11,10.49,2.45,6.38,1.05,14.23-4.17,23.34A1,1,0,0,1,267.54,230Z" transform="translate(-0.2 -1.6)"/><path class="cls-2" d="M267.55,229s6.62-17.34-6.23-32.34C261.31,196.64,282.16,203.46,267.55,229Z" transform="translate(-0.2 -1.6)"/><path class="cls-1" d="M259.17,360.64l-.18,0c-.45-.08-45.55-8.73-51.4-69.88a1,1,0,0,1,.87-1.12c.13,0,12.63-2.06,18.46-7.34a1,1,0,0,1,.69-.27,1,1,0,0,1,.35.06,1,1,0,0,1,.67.83c0,.27,4,26.93,29.64,31.23h.12c2.15-.21,21.19-2.8,29.6-29.36a1,1,0,0,1,1-.72h.16a1,1,0,0,1,.88,1c0,.92-.36,22.73-31.53,38.91a1,1,0,0,1-.48.12,1,1,0,0,1-.34-.06c-.58-.2-11.13-4.64-23.42-17.71-.46-.49-1.71.57-1.33,1.12a58.51,58.51,0,0,0,26.93,21.38,1,1,0,0,1,.66,1l-.29,29.81a1,1,0,0,1-1,1Z" transform="translate(-0.2 -1.6)"/><path class="cls-1" d="M276.41,352.75a1,1,0,0,1-.77-1.73c.22-.24,21.65-24.27,23.94-54.18-2-.94-7.42-4-9-9.73a1,1,0,0,1,1.62-1.1,28.9,28.9,0,0,0,14.06,4.76,1,1,0,0,1,1,1c0,.32.83,32.07-30.14,60.7A1,1,0,0,1,276.41,352.75Z" transform="translate(-0.2 -1.6)"/><path class="cls-1" d="M233.86,264.85c0-.08-.27-8.17-.27-8.26.21-14,17.9-23.63,18.66-24a1,1,0,0,1,.49-.12,1,1,0,0,1,.36.07,1,1,0,0,1,.61.6c2.62,6.81,1.64,14.82,1.31,17a4.75,4.75,0,0,0,3.37,1.3,11.29,11.29,0,0,0,5.81-2.16,1,1,0,0,1,1.66.82c0,2.42,0,9.8-6.88,9.8a11.11,11.11,0,0,1-3.83-.71c.7,1.11,1.56,2.46,2.55,4,2.48,3.81,2.24,10.6,2,13.34a34.37,34.37,0,0,0,20.42-7.79c-.16-24.56-12.82-29.49-13-29.54a1,1,0,0,1-.51-1.55l1.56-2.34a1,1,0,0,1,1.42-.3c16.53,10.68,15.9,29.4,15.41,34.32h.59a1,1,0,0,1,1,1c.79,34.11-27.54,42.63-27.83,42.71a1,1,0,0,1-.28,0,1,1,0,0,1-.38-.07c-30.37-12-28-43.59-27.92-43.91a1,1,0,0,1,1-.94H233V266a1,1,0,0,1,.74-1" transform="translate(-0.2 -1.6)"/><path d="M234,337.16a1,1,0,0,1-.66-.24c-.67-.56-16.53-14.05-19.27-43.17a1,1,0,0,1,.72-1.08c.09,0,9.29-2.92,14.37-6.12a1,1,0,0,1,1.52,1.23c-.08.21-1.89,5.05-8.91,8.31a70.28,70.28,0,0,0,13.06,39.43,1,1,0,0,1-.84,1.64Z" transform="translate(-0.2 -1.6)"/><path d="M234,336.13s-16.17-13.44-18.9-42.47c0,0,9.35-2.92,14.61-6.23,0,0-1.75,4.87-9,8A70.31,70.31,0,0,0,234,336.13Z" transform="translate(-0.2 -1.6)"/><path d="M258.78,289l-.23,0c-.72-.16-17.69-4.16-24.84-17.87a1,1,0,0,1,1.59-1.26c.11.09,11.16,9.49,22.9,9.49s23.18-9.59,23.29-9.69a1,1,0,0,1,1.67,1.07c-.12.45-3.31,11.13-24,18.23A1,1,0,0,1,258.78,289Z" transform="translate(-0.2 -1.6)"/><path d="M259.5,311.14a1,1,0,0,1-1-1V292a1,1,0,0,1,.64-1c.18-.07,18.49-6.07,23.65-16a.94.94,0,0,1,.85-.45,1,1,0,0,1,.24,0,1,1,0,0,1,.78.87c0,.26,1,23.81-24.79,35.59A.83.83,0,0,1,259.5,311.14Z" transform="translate(-0.2 -1.6)"/><path class="cls-2" d="M144.24,254.24a1,1,0,0,1-.43-.09l-4.3-2c-1.76-.79-4-1.83-6.58-3.05l-12.25-5.73-8.39-4c-4.29-2-8.86-4.26-13.27-6.43l-4.88-2.38c-3.37-1.65-6.72-3.19-9.25-4.35-3.55-1.61-6.4-3-9-4.36-3-1.64-5.67-3.18-8.08-4.72s-4.76-3.05-7-4.61c-2.05-1.42-4-2.83-5.77-4.19s-3.2-2.49-4.33-3.45c-2.35-2-3.63-3.21-3.68-3.27a1,1,0,0,1-.18-1.23l.41-.75a1,1,0,0,1,.91-.54l.22,0c.07,0,1.82.4,4.75,1.3,1.43.43,3.15,1,5.26,1.75s4.35,1.6,6.66,2.55c2.52,1,5.11,2.15,7.68,3.35s5.32,2.54,8.35,4.18c2.56,1.42,5.28,3.06,8.56,5.15,2.38,1.5,5.52,3.48,8.69,5.37l4.53,2.71c4.27,2.55,8.68,5.18,12.76,7.69l7.91,4.85,11.55,7.18c2.42,1.5,4.49,2.78,6.1,3.82l4,2.53a1,1,0,0,1,.35,1.37l-.41.75A1,1,0,0,1,144.24,254.24Z" transform="translate(-0.2 -1.6)"/><path class="cls-2" d="M48.17,200.17s1.74.38,4.67,1.28c1.47.44,3.22,1,5.22,1.73s4.22,1.55,6.61,2.53,5,2.09,7.64,3.33,5.47,2.62,8.29,4.15,5.65,3.3,8.5,5.12,5.77,3.63,8.72,5.39c5.89,3.53,11.8,7,17.28,10.39l7.91,4.85,7.07,4.39c4.37,2.73,8,5,10.56,6.59l4,2.53-.41.75-4.3-2c-2.74-1.23-6.62-3.08-11.29-5.25l-7.54-3.52-8.38-4c-5.82-2.75-12-5.8-18.14-8.8-3.08-1.51-6.2-3-9.27-4.36s-6.08-2.83-8.93-4.33-5.52-3.09-8-4.68-4.84-3.11-7-4.59-4.05-2.87-5.73-4.16-3.13-2.44-4.3-3.42c-2.35-2-3.62-3.21-3.62-3.21Z" transform="translate(-0.2 -1.6)"/><path class="cls-2" d="M144.23,229.11a1,1,0,0,1-.39-.08s-4.4-1.82-10.75-4.6l-1-.45c-3-1.31-6.34-2.8-9.9-4.42-3-1.31-6.1-2.79-9.14-4.22l-3.28-1.54c-2.28-1.07-4.58-2.06-6.33-2.8-2-.86-4.2-1.81-6.19-2.87a58.8,58.8,0,0,1-5.47-3.34c-1.59-1.07-3.16-2.2-4.65-3.36-1.26-1-2.5-2-3.78-3.13-1.07-.93-2-1.82-2.8-2.65C79,194.1,78.2,193.09,78.17,193a1,1,0,0,1-.1-1.14l.41-.75a1,1,0,0,1,.91-.54h.1a34.81,34.81,0,0,1,3.44.58c1.14.25,2.37.53,3.76.93,1.65.47,3.18,1,4.68,1.49,1.76.62,3.56,1.32,5.34,2.1a58.51,58.51,0,0,1,5.75,2.79c2,1.11,3.93,2.42,5.76,3.66,1.57,1.07,3.65,2.47,5.78,3.82l3.07,1.93c2.84,1.79,5.78,3.63,8.49,5.42,3.26,2.1,6.32,4.12,9,5.9l1,.65c5.77,3.84,9.64,6.54,9.68,6.57a1,1,0,0,1,.32,1.34l-.41.75A1,1,0,0,1,144.23,229.11Z" transform="translate(-0.2 -1.6)"/><path class="cls-2" d="M79.39,191.66s1.26.13,3.33.57c1,.23,2.29.5,3.68.91s3,.88,4.62,1.47,3.44,1.28,5.28,2.07a57.21,57.21,0,0,1,5.66,2.75c1.9,1.07,3.78,2.32,5.68,3.61s3.84,2.59,5.81,3.84c3.94,2.49,7.9,4.94,11.55,7.34s7.07,4.62,10,6.56c5.83,3.88,9.66,6.55,9.66,6.55l-.41.75s-4.32-1.79-10.73-4.59c-3.2-1.41-6.94-3.06-10.91-4.87s-8.19-3.78-12.41-5.76c-2.11-1-4.25-1.92-6.37-2.82s-4.19-1.81-6.11-2.83a57.2,57.2,0,0,1-5.37-3.28c-1.66-1.12-3.2-2.24-4.6-3.33s-2.64-2.13-3.73-3.09-2-1.86-2.75-2.61c-1.49-1.51-2.28-2.5-2.28-2.5Z" transform="translate(-0.2 -1.6)"/><path class="cls-2" d="M144.23,202.36a1,1,0,0,1-.32-.05s-2.59-.85-6.28-2.21l-.75-.28c-1.69-.63-3.59-1.34-5.59-2.14-1.72-.65-3.54-1.42-5.3-2.16l-1.85-.78c-1.28-.54-2.61-1-3.62-1.36a25.63,25.63,0,0,1-3.66-1.5,19.26,19.26,0,0,1-3.11-2.09,27.57,27.57,0,0,1-2.49-2.23,25.43,25.43,0,0,1-2-2.18,21.65,21.65,0,0,1-1.39-1.92,15.36,15.36,0,0,1-.84-1.43l-.25-.51a1,1,0,0,1,0-1l.41-.74a1,1,0,0,1,.81-.53l.56-.05c.31,0,.72,0,1.21,0h.45a21.69,21.69,0,0,1,2.39.16,25.18,25.18,0,0,1,2.88.51,27.71,27.71,0,0,1,3.22.94,19.25,19.25,0,0,1,3.39,1.52,25.77,25.77,0,0,1,3.22,2.32c.82.67,1.92,1.54,3.07,2.36l1.68,1.19c1.55,1.09,3.14,2.22,4.61,3.34,1.77,1.3,3.42,2.58,4.87,3.7l.51.39c3.11,2.42,5.17,4.15,5.19,4.17a1,1,0,0,1,.24,1.29l-.41.74A1,1,0,0,1,144.23,202.36Z" transform="translate(-0.2 -1.6)"/><path class="cls-2" d="M108.17,180.31l.57-.05a14.22,14.22,0,0,1,1.54,0,20.79,20.79,0,0,1,2.27.15,24.86,24.86,0,0,1,2.78.49,26.77,26.77,0,0,1,3.11.91,18.18,18.18,0,0,1,3.23,1.45,24.55,24.55,0,0,1,3.08,2.22c1,.82,2.05,1.64,3.12,2.4,2.14,1.52,4.29,3,6.26,4.51s3.81,2.88,5.38,4.09c3.12,2.43,5.16,4.14,5.16,4.14l-.41.74s-2.53-.82-6.24-2.19c-1.85-.69-4-1.49-6.31-2.41s-4.71-1.92-7.14-2.93c-1.21-.51-2.45-1-3.68-1.38a24.55,24.55,0,0,1-3.51-1.44,18.18,18.18,0,0,1-2.93-2,26.77,26.77,0,0,1-2.41-2.16,24.87,24.87,0,0,1-1.88-2.1,20.8,20.8,0,0,1-1.33-1.85,14.21,14.21,0,0,1-.78-1.33l-.25-.51Z" transform="translate(-0.2 -1.6)"/><path class="cls-2" d="M373.09,254.73a1,1,0,0,1-.91-.54l-.41-.75a1,1,0,0,1,.35-1.37l4-2.53c1.62-1,3.7-2.33,6.14-3.85l11.49-7.14,7.92-4.85c4.07-2.51,8.47-5.13,12.72-7.67L419,223.3c3.2-1.91,6.33-3.88,8.7-5.38,3.29-2.09,6-3.73,8.55-5.15,3-1.62,5.79-3,8.37-4.19s5.15-2.32,7.68-3.35c2.32-1,4.56-1.81,6.66-2.54s3.81-1.31,5.26-1.75c2.93-.89,4.67-1.28,4.75-1.3l.22,0a1,1,0,0,1,.91.54l.4.75a1,1,0,0,1-.19,1.23c-.05.05-1.33,1.3-3.68,3.27-1.14,1-2.56,2.09-4.33,3.45s-3.71,2.77-5.77,4.19c-2.23,1.55-4.59,3.11-7,4.61s-5,3.08-8.06,4.72c-2.57,1.35-5.42,2.74-9,4.36-2.54,1.17-5.9,2.72-9.25,4.35l-4.77,2.33c-4.45,2.18-9.06,4.44-13.38,6.48l-8.38,4-7.54,3.53-4.77,2.23c-2.58,1.21-4.78,2.24-6.53,3l-4.3,2A1,1,0,0,1,373.09,254.73Z" transform="translate(-0.2 -1.6)"/><path class="cls-2" d="M469.56,201.41s-1.27,1.25-3.62,3.21c-1.17,1-2.62,2.14-4.3,3.42s-3.6,2.69-5.73,4.16-4.46,3-7,4.59-5.18,3.15-8,4.68-5.85,2.93-8.93,4.33-6.19,2.86-9.27,4.36c-6.17,3-12.32,6.06-18.14,8.8l-8.38,4-7.54,3.52c-4.67,2.17-8.55,4-11.29,5.25l-4.3,2-.41-.75,4-2.53c2.53-1.63,6.19-3.86,10.56-6.59l7.07-4.39,7.91-4.85c5.48-3.38,11.39-6.87,17.28-10.39,2.95-1.76,5.86-3.58,8.72-5.39s5.69-3.55,8.5-5.12,5.6-2.94,8.29-4.15,5.24-2.35,7.64-3.33,4.62-1.83,6.61-2.53,3.75-1.29,5.22-1.73c2.93-.89,4.67-1.28,4.67-1.28Z" transform="translate(-0.2 -1.6)"/><path class="cls-2" d="M373.09,229.6a1,1,0,0,1-.91-.54l-.41-.75a1,1,0,0,1,.32-1.34s3.91-2.72,9.68-6.56l.92-.61c2.71-1.79,5.78-3.83,9.08-6,2.71-1.78,5.66-3.64,8.51-5.43l3-1.92c2.13-1.34,4.2-2.75,5.78-3.82,2.12-1.45,3.91-2.63,5.76-3.66a58.63,58.63,0,0,1,5.76-2.8c1.77-.76,3.57-1.47,5.34-2.09,1.49-.54,3-1,4.68-1.49,1.46-.43,2.78-.71,3.74-.93,2.11-.45,3.4-.58,3.45-.58h.1a1,1,0,0,1,.91.54l.41.75a1,1,0,0,1-.1,1.14s-.84,1.05-2.35,2.58c-.71.7-1.66,1.66-2.81,2.66s-2.52,2.16-3.78,3.13c-1.47,1.15-3,2.28-4.65,3.37a58.51,58.51,0,0,1-5.46,3.33c-2,1.07-4.16,2-6.19,2.87-1.75.74-4,1.73-6.33,2.8l-3.33,1.56c-3,1.42-6.15,2.89-9.1,4.2-3.49,1.59-6.81,3.06-9.74,4.35l-1.17.52c-6.35,2.78-10.71,4.59-10.75,4.6A1,1,0,0,1,373.09,229.6Z" transform="translate(-0.2 -1.6)"/><path class="cls-2" d="M438.35,192.89s-.78,1-2.28,2.5c-.75.75-1.66,1.66-2.75,2.61s-2.33,2-3.73,3.09-2.93,2.21-4.6,3.33a57.19,57.19,0,0,1-5.37,3.28c-1.92,1-4,1.93-6.11,2.83s-4.26,1.83-6.37,2.82c-4.22,2-8.42,4-12.41,5.76S387,222.56,383.82,224c-6.41,2.81-10.73,4.59-10.73,4.59l-.41-.75s3.84-2.67,9.66-6.55c2.92-1.93,6.32-4.19,10-6.56s7.61-4.85,11.55-7.34c2-1.24,3.91-2.54,5.81-3.84s3.78-2.55,5.68-3.61a57.21,57.21,0,0,1,5.66-2.75c1.84-.8,3.62-1.49,5.28-2.07s3.22-1.08,4.62-1.47,2.65-.68,3.68-.91c2.08-.44,3.33-.57,3.33-.57Z" transform="translate(-0.2 -1.6)"/><path class="cls-2" d="M373.1,202.84a1,1,0,0,1-.9-.53l-.41-.74a1,1,0,0,1,.24-1.29s2.09-1.75,5.19-4.16l.55-.43c1.44-1.11,3.08-2.38,4.84-3.68,1.46-1.11,3.06-2.25,4.62-3.35l1.65-1.17c1.14-.81,2.24-1.69,3.07-2.36a25.41,25.41,0,0,1,3.21-2.31,19.22,19.22,0,0,1,3.41-1.53,27.65,27.65,0,0,1,3.21-.94,25.66,25.66,0,0,1,2.89-.51,22.05,22.05,0,0,1,2.37-.16h.45c.49,0,.9,0,1.21,0l.57.05a1,1,0,0,1,.8.53l.41.74a1,1,0,0,1,0,1l-.26.51a15.17,15.17,0,0,1-.84,1.42,22.28,22.28,0,0,1-1.4,1.94,25.61,25.61,0,0,1-2,2.18,27.51,27.51,0,0,1-2.5,2.23,19.2,19.2,0,0,1-3.09,2.08,25.57,25.57,0,0,1-3.66,1.51c-1.48.51-2.6.93-3.62,1.36l-1.92.81c-1.74.73-3.53,1.49-5.25,2.14-2.06.82-4,1.56-5.77,2.2l-.55.21c-3.7,1.36-6.26,2.2-6.28,2.21A1,1,0,0,1,373.1,202.84Z" transform="translate(-0.2 -1.6)"/><path class="cls-2" d="M409.58,181.54l-.25.51a14.23,14.23,0,0,1-.78,1.33,20.79,20.79,0,0,1-1.33,1.85,24.84,24.84,0,0,1-1.88,2.1,26.76,26.76,0,0,1-2.41,2.16,18.17,18.17,0,0,1-2.93,2,24.55,24.55,0,0,1-3.51,1.44c-1.23.43-2.47.88-3.68,1.38-2.42,1-4.83,2.06-7.14,2.93s-4.46,1.71-6.31,2.41c-3.72,1.37-6.24,2.19-6.24,2.19l-.41-.74s2-1.71,5.16-4.14c1.57-1.21,3.39-2.62,5.38-4.09s4.12-3,6.26-4.51c1.07-.76,2.11-1.58,3.12-2.4a24.56,24.56,0,0,1,3.08-2.22,18.18,18.18,0,0,1,3.23-1.45,26.76,26.76,0,0,1,3.11-.91,24.86,24.86,0,0,1,2.78-.49,20.81,20.81,0,0,1,2.27-.15,14.23,14.23,0,0,1,1.54,0l.57.05Z" transform="translate(-0.2 -1.6)"/></svg>